<svg xmlns="http://www.w3.org/2000/svg" width="43.623" height="43.623" viewBox="0 0 43.623 43.623"><defs><style>.a{fill:#a88663;}.b{fill:none;stroke:#fff;stroke-width:1.5px;}.c{fill:#fff;}</style></defs><g transform="translate(-106.616 -515)"><g transform="translate(106.616 515)"><rect class="a" width="43.623" height="43.623" rx="21.811" transform="translate(0)"/></g><g transform="translate(119.339 527.723)"><path class="b" d="M19.686,3H4.854A1.852,1.852,0,0,0,3.009,4.854L3,21.54l3.708-3.708H19.686a1.859,1.859,0,0,0,1.854-1.854V4.854A1.859,1.859,0,0,0,19.686,3Z" transform="translate(-3 -3)"/><g transform="translate(3.363 6.544)"><ellipse class="c" cx="1.363" cy="1.363" rx="1.363" ry="1.363"/><ellipse class="c" cx="1.363" cy="1.363" rx="1.363" ry="1.363" transform="translate(4.544)"/><ellipse class="c" cx="1.363" cy="1.363" rx="1.363" ry="1.363" transform="translate(9.088)"/></g></g></g></svg>