<svg xmlns="http://www.w3.org/2000/svg" width="43.623" height="43.623" viewBox="0 0 43.623 43.623"><defs><style>.a{fill:#a88663;}.b{fill:#fff;}</style></defs><g transform="translate(-224.761 -515)"><g transform="translate(224.761 515)"><rect class="a" width="43.623" height="43.623" rx="21.811" transform="translate(0)"/></g><path class="b" d="M16.494,5.069a9.616,9.616,0,0,0-15.13,11.6L0,21.65l5.1-1.338a9.584,9.584,0,0,0,4.594,1.169h0a9.706,9.706,0,0,0,9.7-9.613,9.651,9.651,0,0,0-2.906-6.8ZM9.7,19.861a7.976,7.976,0,0,1-4.07-1.113l-.29-.173-3.023.792.805-2.949-.191-.3a8.006,8.006,0,1,1,14.849-4.248A8.079,8.079,0,0,1,9.7,19.861Zm4.382-5.984c-.238-.121-1.42-.7-1.641-.779s-.381-.121-.541.121-.619.779-.762.944-.281.182-.52.061a6.538,6.538,0,0,1-3.269-2.858c-.247-.424.247-.394.706-1.312a.445.445,0,0,0-.022-.42c-.061-.121-.541-1.3-.74-1.784s-.394-.4-.541-.411-.3-.009-.459-.009a.89.89,0,0,0-.641.3,2.7,2.7,0,0,0-.84,2,4.706,4.706,0,0,0,.979,2.486A10.734,10.734,0,0,0,9.89,15.847a4.7,4.7,0,0,0,2.884.6,2.46,2.46,0,0,0,1.62-1.143,2.009,2.009,0,0,0,.139-1.143C14.476,14.054,14.316,13.994,14.078,13.877Z" transform="translate(236.576 524.565)"/></g></svg>