<svg xmlns="http://www.w3.org/2000/svg" width="43.623" height="43.623" viewBox="0 0 43.623 43.623"><defs><style>.a{fill:#a88663;}.b{fill:#fcfcfc;opacity:0;}.c{fill:none;stroke:#fcfcfc;stroke-linecap:round;stroke-linejoin:round;stroke-width:1.5px;}</style></defs><g transform="translate(-165.689 -515)"><rect class="a" width="43.623" height="43.623" rx="21.811" transform="translate(165.689 515)"/><g transform="translate(178.412 527.723)"><rect class="b" width="18.176" height="18.176" transform="translate(0)"/><g transform="translate(1.515 3.029)"><path class="c" d="M3.181,3.333H15.3a1.519,1.519,0,0,1,1.514,1.515v9.088A1.519,1.519,0,0,1,15.3,15.451H3.181a1.519,1.519,0,0,1-1.514-1.515V4.848A1.519,1.519,0,0,1,3.181,3.333Z" transform="translate(-1.667 -3.333)"/><path class="c" d="M16.813,5,9.24,10.3,1.667,5" transform="translate(-1.667 -3.485)"/></g></g></g></svg>