<svg xmlns="http://www.w3.org/2000/svg" xmlns:xlink="http://www.w3.org/1999/xlink" width="344.552" height="168" viewBox="0 0 344.552 168"><defs><style>.a{fill:#f7f7f7;stroke:#707070;}.b{clip-path:url(#a);}.c,.g{opacity:0.3;}.c,.f{mix-blend-mode:multiply;}.c,.e,.f{isolation:isolate;}.c,.d{fill:url(#b);}.d{opacity:0.5;}.e,.f{fill:#a88663;}.e{mix-blend-mode:color;}.f{opacity:0.4;}.h{fill:#fff;}</style><clipPath id="a"><rect class="a" width="337" height="168" rx="23" transform="translate(19 75.581)"/></clipPath><linearGradient id="b" x1="0.5" x2="0.5" y2="1" gradientUnits="objectBoundingBox"><stop offset="0" stop-color="#c6d3d8"/><stop offset="0.036" stop-color="#aab8be"/><stop offset="0.098" stop-color="#819096"/><stop offset="0.16" stop-color="#607077"/><stop offset="0.218" stop-color="#495a61"/><stop offset="0.273" stop-color="#3a4c53"/><stop offset="0.32" stop-color="#36484f"/><stop offset="0.413" stop-color="#68777d"/><stop offset="0.516" stop-color="#98a5a9"/><stop offset="0.607" stop-color="#bbc6ca"/><stop offset="0.681" stop-color="#d1dadd"/><stop offset="0.729" stop-color="#d9e2e5"/><stop offset="0.775" stop-color="#d2dde0"/><stop offset="0.837" stop-color="#c1cfd5"/><stop offset="0.909" stop-color="#a4b9c1"/><stop offset="0.987" stop-color="#7d9ba6"/><stop offset="1" stop-color="#7696a2"/></linearGradient></defs><g transform="translate(-11.448 -77)"><g class="b" transform="translate(0 1.419)"><circle class="c" cx="130.5" cy="130.5" r="130.5" transform="translate(188 29.581)"/><rect class="d" width="375" height="342" transform="translate(375 406.581) rotate(180)"/><rect class="e" width="363" height="188" transform="translate(375 252.581) rotate(180)"/><rect class="f" width="375" height="188" transform="translate(387 252.581) rotate(180)"/></g><g class="g" transform="translate(-131.735 -75.178)"><g transform="translate(143.183 152.178)"><path class="h" d="M172.966,152.178v87.749h13.661v1.723H148.722v-1.723h13.661V161.9c-1.6,1.107-3.077,2.092-4.185,2.707l-14.03,8-.985-1.6c10.461-5.907,19.568-10.954,27.322-18.83Z" transform="translate(-143.183 -152.178)"/><path class="h" d="M258.41,243.373c-18.83,0-28.8-16.984-28.8-45.659,0-28.552,9.969-45.536,28.8-45.536,18.953,0,28.8,17.23,28.8,45.536C287.209,226.389,277.241,243.373,258.41,243.373ZM241.919,201.53c0,17.968,1.722,25.844,3.569,30.89,2.215,6.031,6.523,9.231,12.8,9.231,11.569,0,16.614-8,16.614-43.075,0-18.83-1.23-29.66-3.569-35.322-2.584-6.276-6.153-9.353-13.046-9.353-6.153,0-10.461,3.077-12.676,8.984C242.412,171.377,241.919,182.453,241.919,201.53Z" transform="translate(-172.138 -152.178)"/></g><g transform="translate(217.702 228.983)"><path class="h" d="M281.951,306.938v.245c16,.985,27.2,11.446,27.2,24.861,0,14.03-12.8,26.829-29.537,26.829-14.03,0-22.275-7.261-24.367-19.2l1.722-.369c1.847,10.953,9.6,17.845,22.276,17.845,13.169,0,17.968-9.108,17.968-26.214,0-15.754-5.785-22.4-16.491-22.4a23.91,23.91,0,0,0-14.522,4.8l-1.108-1.969c2.831-1.6,6.523-2.83,12.43-4.43,12.061-3.324,17.353-10.216,17.353-22.892,0-9.476-4.307-14.645-12.676-14.645-8.615,0-13.046,4.308-13.046,8.738,0,4.308,2.092,6.154,2.092,8,0,2.954-2.338,3.938-5.169,3.938-3.569,0-5.415-1.846-5.415-5.292,0-6.4,7.015-17.107,22.276-17.107,15.015,0,23.26,9.6,23.26,18.953C306.2,297.338,294.136,304.107,281.951,306.938Z" transform="translate(-255.245 -267.678)"/><path class="h" d="M379.911,358.873c-18.83,0-28.8-16.984-28.8-45.659,0-28.552,9.969-45.536,28.8-45.536,18.952,0,28.8,17.23,28.8,45.536C408.709,341.889,398.741,358.873,379.911,358.873ZM363.419,317.03c0,17.968,1.724,25.845,3.569,30.89,2.216,6.03,6.524,9.23,12.8,9.23,11.569,0,16.614-8,16.614-43.075,0-18.83-1.23-29.66-3.569-35.322-2.584-6.276-6.153-9.353-13.046-9.353-6.154,0-10.461,3.077-12.676,8.984C363.911,286.877,363.419,297.953,363.419,317.03Z" transform="translate(-287.362 -267.678)"/></g><g transform="translate(159.134 257.907)"><rect class="h" width="76.959" height="2.66" transform="translate(0 53.723) rotate(-44.273)"/></g><g transform="translate(265.199 154.502)"><rect class="h" width="76.96" height="2.66" transform="translate(0 53.724) rotate(-44.273)"/></g></g></g></svg>